<?xml version="1.0" encoding="utf-8"?>
<!-- Generator: Adobe Illustrator 23.0.3, SVG Export Plug-In . SVG Version: 6.00 Build 0)  -->
<svg version="1.1" id="Icons" xmlns="http://www.w3.org/2000/svg" xmlns:xlink="http://www.w3.org/1999/xlink" x="0px" y="0px"
	 viewBox="0 0 32 32" style="enable-background:new 0 0 32 32;" xml:space="preserve">
<style>.cls-1{fill:none;stroke:#fff;stroke-linecap:round;stroke-linejoin:round;stroke-width:2px;}</style>
<path d="M31.9,16.6l-3-8c-0.1-0.2-0.2-0.4-0.4-0.5l-12-7c-0.3-0.2-0.7-0.2-1,0l-12,7C3.3,8.3,3.1,8.4,3.1,8.6l-3,8
	C-0.1,17,0,17.3,0.2,17.6C0.4,17.8,0.7,18,1,18h3v12c0,0.6,0.4,1,1,1h6c0.3,0,0.5-0.1,0.7-0.3l4.3-4.3l4.3,4.3
	c0.2,0.2,0.5,0.3,0.7,0.3h6c0.6,0,1-0.4,1-1V18h3c0.3,0,0.6-0.2,0.8-0.4C32,17.3,32.1,17,31.9,16.6z M10.1,30.4
	c0,0.1,0.1,0.2,0.2,0.3s0.2,0.2,0.3,0.2C10.4,30.8,10.2,30.6,10.1,30.4z M10.3,29.3C10.1,29.5,10,29.7,10,30V20
	c0,0.3,0.1,0.5,0.3,0.7l4.3,4.3L10.3,29.3z M21,19c-0.3,0-0.5,0.1-0.7,0.3L16,23.6l-4.3-4.3C11.5,19.1,11.3,19,11,19H21z M12,16v-5
	c0-0.6,0.4-1,1-1h6c0.6,0,1,0.4,1,1v5c0,0.6-0.4,1-1,1h-6C12.4,17,12,16.6,12,16z M10.1,19.6c0.1-0.2,0.3-0.4,0.5-0.5
	c-0.1,0-0.2,0.1-0.3,0.2S10.1,19.5,10.1,19.6z M21.4,30.9c0.1,0,0.2-0.1,0.3-0.2s0.2-0.2,0.2-0.3C21.8,30.6,21.6,30.8,21.4,30.9z
	 M22,30c0-0.3-0.1-0.5-0.3-0.7L17.4,25l4.3-4.3c0.2-0.2,0.3-0.5,0.3-0.7V30z M21.4,19.1c0.2,0.1,0.4,0.3,0.5,0.5
	c0-0.1-0.1-0.2-0.2-0.3S21.5,19.1,21.4,19.1z M27.7,16l-1.8-5.3c-0.1-0.2-0.2-0.4-0.5-0.6l-9-5c-0.3-0.2-0.7-0.2-1,0l-9,5
	c-0.2,0.1-0.4,0.3-0.5,0.6L4.3,16H2.4l2.4-6.3L16,3.2l11.2,6.5l2.4,6.3H27.7z"/>
</svg>
