<?xml version="1.0" encoding="UTF-8" standalone="no"?> <svg xmlns="http://www.w3.org/2000/svg" width="76.291" height="56.034" viewBox="0 0 76.291 56.034">
  <defs>
    <style>
      .a {
        fill: #333;
      }
    </style>
  </defs>
  <g id="Group_2512" data-name="Group 2512" transform="translate(-1066.263 -1656.62)">
    <g id="Group_2472" data-name="Group 2472">
      <g id="Group_2471" data-name="Group 2471">
        <g id="Group_2470" data-name="Group 2470">
          <path class="a" id="Path_523" data-name="Path 523" d="M1129.08,1656.62c-1.768,1.934-10.814,10.468-13.607,34.7l1.7,21.329h4.209C1121.39,1697.76,1118.99,1675.27,1129.08,1656.62Z"/>
        </g>
      </g>
    </g>
    <g id="Group_2475" data-name="Group 2475">
      <g id="Group_2474" data-name="Group 2474">
        <g id="Group_2473" data-name="Group 2473">
          <path class="a" id="Path_524" data-name="Path 524" d="M1134.64,1662.7s-11.768,23.679-13.447,49.953h6.051S1126.79,1684.47,1134.64,1662.7Z"/>
        </g>
      </g>
    </g>
    <g id="Group_2478" data-name="Group 2478">
      <g id="Group_2477" data-name="Group 2477">
        <g id="Group_2476" data-name="Group 2476">
          <path class="a" id="Path_525" data-name="Path 525" d="M1132.55,1702.23s4.406-23.165,10-25.383c0,0-6.352,24.446-6.574,35.8h-4.635Z"/>
        </g>
      </g>
    </g>
    <g id="Group_2481" data-name="Group 2481">
      <g id="Group_2480" data-name="Group 2480">
        <g id="Group_2479" data-name="Group 2479">
          <path class="a" id="Path_526" data-name="Path 526" d="M1077.19,1698.95v-25.862s6.967,13.853,8,25.862.91,13.7.91,13.7h-6.4Z"/>
        </g>
      </g>
    </g>
    <g id="Group_2484" data-name="Group 2484">
      <g id="Group_2483" data-name="Group 2483">
        <g id="Group_2482" data-name="Group 2482">
          <path class="a" id="Path_527" data-name="Path 527" d="M1087.24,1695.58s1.371-14.869,1.656-23.731c0,0,2.912,19.462,2.912,30.053l-2.912,2.163Z"/>
        </g>
      </g>
    </g>
    <g id="Group_2487" data-name="Group 2487">
      <g id="Group_2486" data-name="Group 2486">
        <g id="Group_2485" data-name="Group 2485">
          <path class="a" id="Path_528" data-name="Path 528" d="M1101.19,1700.65v-23.313s-6.088,12.813-6.988,23.313-.8,12-.8,12h5.594Z"/>
        </g>
      </g>
    </g>
    <g id="Group_2490" data-name="Group 2490">
      <g id="Group_2489" data-name="Group 2489">
        <g id="Group_2488" data-name="Group 2488">
          <path class="a" id="Path_529" data-name="Path 529" d="M1105.48,1699.36a136.964,136.964,0,0,0,3.1-18.469s3,21.2,1.545,31.759h-5.057Z"/>
        </g>
      </g>
    </g>
    <g id="Group_2493" data-name="Group 2493">
      <g id="Group_2492" data-name="Group 2492">
        <g id="Group_2491" data-name="Group 2491">
          <path class="a" id="Path_530" data-name="Path 530" d="M1095.95,1712.65H1088.9c.439-8.733,2.422-20.989,2.422-20.989,1.813-11.953,6.7-26.96,11.088-28.493C1100.39,1668.28,1093.02,1685.29,1095.95,1712.65Z"/>
        </g>
      </g>
    </g>
    <g id="Group_2496" data-name="Group 2496">
      <g id="Group_2495" data-name="Group 2495">
        <g id="Group_2494" data-name="Group 2494">
          <path class="a" id="Path_531" data-name="Path 531" d="M1079.55,1699.6s-4.914-22.746-13.287-33.435c0,0,8.318,30.886,8.365,46.487h6.4Z"/>
        </g>
      </g>
    </g>
    <g id="Group_2499" data-name="Group 2499">
      <g id="Group_2498" data-name="Group 2498">
        <g id="Group_2497" data-name="Group 2497">
          <path class="a" id="Path_532" data-name="Path 532" d="M1078.19,1661.52s11.586,24.81,12.988,51.134h-6.053C1085.13,1712.65,1085.81,1683.54,1078.19,1661.52Z"/>
        </g>
      </g>
    </g>
    <g id="Group_2502" data-name="Group 2502">
      <g id="Group_2501" data-name="Group 2501">
        <g id="Group_2500" data-name="Group 2500">
          <path class="a" id="Path_533" data-name="Path 533" d="M1127.92,1673.31s-8.559,19.782-9.6,39.232h4.471C1122.79,1712.54,1122.29,1689.58,1127.92,1673.31Z"/>
        </g>
      </g>
    </g>
    <g id="Group_2505" data-name="Group 2505">
      <g id="Group_2504" data-name="Group 2504">
        <g id="Group_2503" data-name="Group 2503">
          <path class="a" id="Path_534" data-name="Path 534" d="M1134.64,1698.98V1673.2s-5.559,16.675-6.986,25.778c-1.861,11.849-.8,13.671-.8,13.671h5.592Z"/>
        </g>
      </g>
    </g>
    <g id="Group_2508" data-name="Group 2508">
      <g id="Group_2507" data-name="Group 2507">
        <g id="Group_2506" data-name="Group 2506">
          <path class="a" id="Path_535" data-name="Path 535" d="M1100.42,1704.29s1.594-24.541,6.664-29.194c0,0-2.525,26.494-1.023,37.554h-8.318Z"/>
        </g>
      </g>
    </g>
    <g id="Group_2511" data-name="Group 2511">
      <g id="Group_2510" data-name="Group 2510">
        <g id="Group_2509" data-name="Group 2509">
          <path class="a" id="Path_536" data-name="Path 536" d="M1117.18,1712.65h-8.6l1.256-16.88a142.533,142.533,0,0,0,2.43-30.561S1117.86,1692.81,1117.18,1712.65Z"/>
        </g>
      </g>
    </g>
  </g>
</svg>
