<?xml version="1.0" encoding="UTF-8" standalone="no"?> <svg id="Layer_1" data-name="Layer 1" xmlns="http://www.w3.org/2000/svg" viewBox="0 0 128 128"><defs><style>.cls-1{fill:#1d75b8;}.cls-2{fill:#2d3e50;}</style></defs><title>b</title><path class="cls-1" d="M116.15824,94.69557a21.74645,21.74645,0,0,0-4.63882-3.10567,52.77116,52.77116,0,0,0-5.81659-2.50336q-2.07073-.716-3.53292-1.32364a15.71469,15.71469,0,0,1-2.462-1.25022,4.27265,4.27265,0,0,1-1.46316-1.46316,3.91365,3.91365,0,0,1-.46371-1.96235,3.59179,3.59179,0,0,1,1.49864-2.99774q1.49833-1.14043,4.9241-1.14158a29.11667,29.11667,0,0,1,6.5302.7133,33.03812,33.03812,0,0,1,5.45979,1.713l2.21271-8.564a28.27926,28.27926,0,0,0-4.24653-1.42742,40.11878,40.11878,0,0,0-6.38777-1.07062V62.89h-8.9922v7.70777a17.9742,17.9742,0,0,0-5.42385,1.81991,12.11634,12.11634,0,0,0-3.7113,3.033,11.98913,11.98913,0,0,0-2.10529,3.96069,15.13951,15.13951,0,0,0-.67808,4.53237A10.92558,10.92558,0,0,0,90.894,92.86447,18.543,18.543,0,0,0,94.96163,95.398q2.24873,1.03537,4.60333,1.89139,2.4258.85668,4.282,1.60554a18.45694,18.45694,0,0,1,3.06921,1.53458,6.29506,6.29506,0,0,1,1.85544,1.74849,4.08789,4.08789,0,0,1,.64208,2.31966,3.87553,3.87553,0,0,1-1.60554,3.31855q-1.60554,1.17755-5.95949,1.17732a26.22272,26.22272,0,0,1-7.31523-.99894,37.50722,37.50722,0,0,1-5.959-2.2122l-3.0687,8.20717a48.642,48.642,0,0,0,4.81719,1.9624,33.37844,33.37844,0,0,0,8.45707,1.60605v8.4925h8.9922v-8.70687a18.844,18.844,0,0,0,5.88807-1.85447,13.10526,13.10526,0,0,0,3.88973-3.06773,10.99253,10.99253,0,0,0,2.14072-3.88727,14.4599,14.4599,0,0,0,.64265-4.24408,12.80242,12.80242,0,0,0-1.10635-5.49287A12.65954,12.65954,0,0,0,116.15824,94.69557Z"/><path class="cls-2" d="M34.05164,24.85032a11.55188,11.55188,0,0,0,22.68181,0l1.76761-9.08847A12.17221,12.17221,0,0,0,46.44057,1.9495H44.34452A12.17221,12.17221,0,0,0,32.284,15.76185Z"/><path class="cls-2" d="M100.24194,46.08444l-17.36572.37687L65.21188,41.0852l-.66846-.19909h-.01424a8.18094,8.18094,0,0,0-1.344-.27735c-.19909-.02847-.4053-.03555-.61156-.04978-2.36094-.3129-4.73608-.59025-7.097-.896a2.29132,2.29132,0,0,0-1.0169.0711l-.27735-.09952-9.06685,9.06685-.93157-.93869-2.8445-2.83739-5.28366-5.29078-17.61794,3.6769a6.34876,6.34876,0,0,0-4.90488,4.55009l-.01276.05048L10.88185,58.4011,7.98049,69.91423l-.19914.77515a4.144,4.144,0,0,0-.11376,1.07381L8.1867,93.60895a5.3091,5.3091,0,0,0,10.61.14223l1.0525-20.55863,5.07741-12.1318v44.80093A20.19918,20.19918,0,0,0,59.402,120.141a20.52776,20.52776,0,0,0,3.35649-4.43742,20.11966,20.11966,0,0,0,2.553-9.842V55.62062L80.84953,58.6998l.94581.12088a4.611,4.611,0,0,0,.768,0l18.43953-2.048a5.36135,5.36135,0,0,0-.76091-10.6882Z"/></svg>