<?xml version="1.0" encoding="UTF-8" standalone="no"?> <svg xmlns="http://www.w3.org/2000/svg" viewBox="0 0 40.82 41.81"><defs><style>.cls-1{fill:none;stroke:#F8F9FA;stroke-linecap:round;stroke-linejoin:round;stroke-width:2px;}</style></defs><title>Asset 4</title><g id="Layer_2" data-name="Layer 2"><g id="Layer_2-2" data-name="Layer 2"><rect class="cls-1" x="1.59" y="8.82" width="36.8" height="5.81" rx="2.62"/><path class="cls-1" d="M2.76,34.46A9.13,9.13,0,0,1,1.7,28L4.5,14.63"/><path class="cls-1" d="M20.41,39H8.47c-.24,0-.48,0-.72,0"/><path class="cls-1" d="M3.59,34.28S1,35.71,1,37.66c0,2.56,4.72,5.92,8.09-.77"/><path class="cls-1" d="M20.41,39H32.35c.24,0,.48,0,.72,0"/><path class="cls-1" d="M37.23,34.28s2.57,1.43,2.59,3.38c0,2.56-4.72,5.92-8.08-.77"/><path class="cls-1" d="M38.06,34.46A9.08,9.08,0,0,0,39.12,28l-2.8-13.32"/><path class="cls-1" d="M11.8,27.63a3.9,3.9,0,0,0,5.52-5.52C16,20.8,11.29,20.17,10,20a.26.26,0,0,0-.28.29C9.86,21.59,10.49,26.32,11.8,27.63Z"/><line class="cls-1" x1="13.11" y1="23.5" x2="19.34" y2="29.73"/><path class="cls-1" d="M21.54,20.64A5.25,5.25,0,0,0,29,28.07c1.76-1.77,2.6-8.12,2.8-9.85a.34.34,0,0,0-.38-.38C29.66,18,23.31,18.87,21.54,20.64Z"/><line class="cls-1" x1="27.09" y1="22.4" x2="19.34" y2="29.73"/><line class="cls-1" x1="19.54" y1="34.88" x2="19.54" y2="29.88"/><path class="cls-1" d="M7,8.82l6.46-5.45A10.14,10.14,0,0,1,27,3.82L32,8.73"/></g></g></svg>