<?xml version="1.0" encoding="UTF-8" standalone="no"?> <svg xmlns="http://www.w3.org/2000/svg" viewBox="0 0 35.67 47"><defs><style>.cls-1{fill:none;stroke:#333;stroke-linecap:round;stroke-linejoin:round;stroke-width:2px;}.cls-2{fill:#333;}</style></defs><title>Asset 18</title><g id="Layer_2" data-name="Layer 2"><g id="Layer_2-2" data-name="Layer 2"><path class="cls-1" d="M28.2,5.79a14.48,14.48,0,0,1,2,2.94"/><path class="cls-1" d="M9.15,3.74A14.11,14.11,0,0,1,17.5,1h0a14.09,14.09,0,0,1,8.42,2.79"/><path class="cls-1" d="M4.85,8.78A14.6,14.6,0,0,1,7.4,5.26"/><path class="cls-1" d="M6.83,35.4a14.2,14.2,0,0,1-3.65-9.57V15.69a15.31,15.31,0,0,1,.21-2.55"/><path class="cls-1" d="M24.83,38.08a12.85,12.85,0,0,1-6.42,1.7H16.59A12.93,12.93,0,0,1,10.07,38"/><path class="cls-1" d="M31.69,13.63a15.49,15.49,0,0,1,.14,2.06V25.83a14.22,14.22,0,0,1-3.63,9.55"/><path class="cls-1" d="M21.92,28a1,1,0,0,0,.86-.48,33.8,33.8,0,0,0,3.89-13.77,9.08,9.08,0,0,0-9-9.09,9.11,9.11,0,0,0-9,9.13,33.61,33.61,0,0,0,3.88,13.73,1,1,0,0,0,.86.48Z"/><line class="cls-1" x1="15.83" y1="28" x2="15.83" y2="26"/><line class="cls-1" x1="19.83" y1="28" x2="19.83" y2="26"/><path class="cls-1" d="M9.67,9.09S6.67,7.33,1,10.17c0,0,1.22,4.12,7.39,4.62"/><path class="cls-1" d="M25.71,9.41s3.29-2.08,9,.76c0,0-1.67,4.16-7.84,4.66"/><path class="cls-1" d="M13,6S8.67,3.44,7.21,2.62c0,0-.7,3.2,2.46,6.47"/><path class="cls-1" d="M22.34,6s4.33-2.58,5.79-3.4c0,0,.7,3.2-2.47,6.47"/><circle class="cls-2" cx="13.78" cy="15.33" r="1.16"/><circle class="cls-2" cx="21.13" cy="15.33" r="1.16"/><path class="cls-1" d="M10.07,34V44.38A1.62,1.62,0,0,1,8.45,46h0a1.62,1.62,0,0,1-1.62-1.62V30"/><path class="cls-1" d="M28.07,30V44.38A1.62,1.62,0,0,1,26.45,46h0a1.62,1.62,0,0,1-1.62-1.62V34"/></g></g></svg>