<?xml version="1.0" encoding="UTF-8" standalone="no"?> <svg id="Layer_1" data-name="Layer 1" xmlns="http://www.w3.org/2000/svg" viewBox="0 0 128 128"><defs><style>.cls-1{fill:#2d3e50;}.cls-2{fill:#36AE6A;}</style></defs><title>b</title><path class="cls-1" d="M87.028,34.45312,94.17633,8.11258a3.96185,3.96185,0,0,0-3.82365-4.99965H37.64823a3.9623,3.9623,0,0,0-3.82365,5.00033l7.15156,26.33755a49.26517,49.26517,0,0,0-26.187,43.49777V120.925a3.96208,3.96208,0,0,0,3.962,3.962h90.4976a3.96208,3.96208,0,0,0,3.962-3.962V77.94858A49.2648,49.2648,0,0,0,87.028,34.45312ZM105.28677,116.963H22.71323V77.94858A41.33361,41.33361,0,0,1,45.85371,40.85486H64.02913a3.962,3.962,0,0,0,0-7.92406H48.77459L42.8295,11.037h42.3426L79.23042,32.9308h-.08967a3.962,3.962,0,1,0,0,7.92406h3.00509a41.334,41.334,0,0,1,23.14093,37.09373Z"/><path class="cls-2" d="M74.733,79.09161a17.62965,17.62965,0,0,0-3.76065-2.51773,42.7811,42.7811,0,0,0-4.71546-2.02945q-1.67872-.58048-2.86411-1.07306a12.73975,12.73975,0,0,1-1.996-1.01354,3.4638,3.4638,0,0,1-1.18617-1.18617,3.17276,3.17276,0,0,1-.37592-1.59086,2.91183,2.91183,0,0,1,1.21493-2.43024,6.69081,6.69081,0,0,1,3.99192-.92547,23.60461,23.60461,0,0,1,5.294.57827,26.7837,26.7837,0,0,1,4.4262,1.38872l1.79382-6.94273a22.92574,22.92574,0,0,0-3.44262-1.1572,32.52393,32.52393,0,0,0-5.1785-.86794v-6.0171H60.6446v6.24862a14.57151,14.57151,0,0,0-4.39706,1.47539,9.8226,9.8226,0,0,0-3.00872,2.4588,9.71948,9.71948,0,0,0-1.70674,3.21089,12.27346,12.27346,0,0,0-.54971,3.67435,8.85726,8.85726,0,0,0,3.26921,7.232,15.03265,15.03265,0,0,0,3.29756,2.0539q1.823.83936,3.73188,1.53333,1.96657.69451,3.47135,1.3016A14.96287,14.96287,0,0,1,67.24055,83.74a5.10335,5.10335,0,0,1,1.50419,1.41748,3.314,3.314,0,0,1,.52053,1.88053,3.14186,3.14186,0,0,1-1.3016,2.69032q-1.3016.95463-4.8313.95444A21.25852,21.25852,0,0,1,57.202,89.873a30.40675,30.40675,0,0,1-4.83093-1.79341l-2.48777,6.65347a39.43363,39.43363,0,0,0,3.90525,1.5909,27.05959,27.05959,0,0,0,6.85607,1.302v6.88479h7.28989V97.45218a15.27666,15.27666,0,0,0,4.7734-1.5034,10.62431,10.62431,0,0,0,3.15336-2.487,8.91155,8.91155,0,0,0,1.73547-3.15138,11.72251,11.72251,0,0,0,.521-3.44063,10.3788,10.3788,0,0,0-.89691-4.453A10.263,10.263,0,0,0,74.733,79.09161Z"/></svg>